<svg width="6" height="6" viewBox="0 0 6 6" fill="none" xmlns="http://www.w3.org/2000/svg">
<g clip-path="url(#clip0_1453_4165)">
<path d="M1.22425 1.105C1.1265 1.00725 1.1265 0.84925 1.22425 0.7515C1.322 0.65375 1.48 0.65375 1.57775 0.7515L2.10825 1.282C2.206 1.37975 2.206 1.53775 2.10825 1.6355C2.0105 1.73325 1.8525 1.73325 1.75475 1.6355L1.22425 1.105ZM4.06075 1.68925C4.12475 1.68925 4.18875 1.66475 4.2375 1.616L4.76775 1.08575C4.8655 0.988 4.8655 0.83 4.76775 0.73225C4.67 0.6345 4.512 0.6345 4.41425 0.73225L3.884 1.2625C3.78625 1.36025 3.78625 1.51825 3.884 1.616C3.93275 1.66475 3.99675 1.68925 4.06075 1.68925ZM3 1.25C3.138 1.25 3.25 1.138 3.25 1V0.25C3.25 0.112 3.138 0 3 0C2.862 0 2.75 0.112 2.75 0.25V1C2.75 1.138 2.862 1.25 3 1.25ZM4.25 2.5C4.25 2.638 4.362 2.75 4.5 2.75H5.25C5.388 2.75 5.5 2.638 5.5 2.5C5.5 2.362 5.388 2.25 5.25 2.25H4.5C4.362 2.25 4.25 2.362 4.25 2.5ZM1.75 2.5C1.75 2.362 1.638 2.25 1.5 2.25H0.75C0.612 2.25 0.5 2.362 0.5 2.5C0.5 2.638 0.612 2.75 0.75 2.75H1.5C1.638 2.75 1.75 2.638 1.75 2.5ZM5.74975 5.37C5.721 4.87675 5.4035 4.446 4.94075 4.2725L3.752 3.82675V2.52675C3.752 2.14775 3.483 1.81825 3.12625 1.76025C2.90675 1.724 2.684 1.786 2.5165 1.92875C2.3485 2.0715 2.25225 2.27975 2.25225 2.50025V4.65075C2.25225 4.65075 1.9945 4.44725 1.9925 4.44575C1.69 4.1825 1.23025 4.20225 0.9545 4.49775C0.672 4.79975 0.688 5.27525 0.987 5.55525L1.367 5.93025C1.4135 5.97525 1.47575 6.00025 1.5405 6.00025C1.7655 6.00025 1.876 5.7265 1.714 5.57025L1.3315 5.193C1.23075 5.0985 1.2255 4.93975 1.32 4.839C1.41375 4.7385 1.572 4.73375 1.6725 4.827C1.675 4.8295 2.11525 5.1805 2.11525 5.1805C2.23425 5.27525 2.393 5.293 2.53025 5.22725C2.66725 5.16125 2.7525 5.02575 2.7525 4.8735V2.5C2.74975 2.34825 2.89575 2.225 3.04625 2.2535C3.16175 2.2725 3.2525 2.3925 3.2525 2.52675V4C3.2525 4.10425 3.31725 4.1975 3.41475 4.23425L4.76575 4.741C5.0435 4.845 5.234 5.1035 5.25075 5.38475V5.75C5.25075 5.888 5.36275 6 5.50075 6C5.63875 6 5.75075 5.888 5.75075 5.75V5.37H5.74975Z" fill="white"/>
</g>
<defs>
<clipPath id="clip0_1453_4165">
<rect width="6" height="6" fill="white"/>
</clipPath>
</defs>
</svg>
