<svg width="24" height="24" viewBox="0 0 24 24" fill="none" xmlns="http://www.w3.org/2000/svg">
<g clip-path="url(#clip0_4509_6358)">
<path d="M12 24C5.383 24 0 18.617 0 12C0 5.383 5.383 0 12 0C18.617 0 24 5.383 24 12C24 18.617 18.617 24 12 24ZM12 3C7.038 3 3 7.037 3 12C3 16.963 7.038 21 12 21C16.962 21 21 16.963 21 12C21 7.037 16.963 3 12 3ZM17 12.5C17 11.672 16.328 11 15.5 11H13V6.5C13 5.672 12.329 5 11.5 5C10.671 5 10 5.672 10 6.5V12.5C10 13.328 10.671 14 11.5 14H15.5C16.328 14 17 13.328 17 12.5Z" fill="white"/>
</g>
<defs>
<clipPath id="clip0_4509_6358">
<rect width="24" height="24" fill="white"/>
</clipPath>
</defs>
</svg>
